<svg id="Layer_1" data-name="Layer 1" xmlns="http://www.w3.org/2000/svg" viewBox="0 0 477.79 159.65"><defs><style>.cls-1{fill:#231f20;}.cls-2{fill:#e4d2b4;}</style></defs><path class="cls-1" d="M36.69,72.74a7.38,7.38,0,0,1,1.61,2,10.56,10.56,0,0,1,1.45,5.11,20.81,20.81,0,0,1-1.26,5.41q-.43,1.31-2.55,7.34t-3,9.83a39.25,39.25,0,0,0-1.26,9,93.76,93.76,0,0,1,2.29-9.68A90.76,90.76,0,0,1,39.85,88.6a57.26,57.26,0,0,1,7.93-11.67q4.63-5,8.42-5a3.68,3.68,0,0,1,2.19.83,10.06,10.06,0,0,1,2,2,13.4,13.4,0,0,1,1.41,2.63,7.09,7.09,0,0,1,.54,2.48A20.59,20.59,0,0,1,60.92,85q-.44,1.32-2.65,7.45c-1.48,4.09-2.55,7.33-3.24,9.73a32.63,32.63,0,0,0-1.31,7.93,4.48,4.48,0,0,0,.83,2.82,2.62,2.62,0,0,0,2.24,1.12q4.38,0,8.22-4.57a31.16,31.16,0,0,0,4.48-7.64l7-16.25A5.66,5.66,0,0,1,78.34,83a4.68,4.68,0,0,1,2.78-.73l-3.56,8.27L72.16,103a49.31,49.31,0,0,1-4.81,9q-6.48,9.35-15.19,9.34a7.76,7.76,0,0,1-6.95-3.84,13.76,13.76,0,0,1-2-7.49A58.36,58.36,0,0,1,45,97.27q1.32-5.55,3.8-13.34c-.69,0-1.87,1.27-3.56,3.8a85.81,85.81,0,0,0-5.2,9,96.65,96.65,0,0,0-4.72,10.46q-2.05,5.51-2,8.32a4.5,4.5,0,0,0,.22,1.71,1.64,1.64,0,0,1,.22.58.56.56,0,0,1-.14.39.43.43,0,0,1-.3.15,39.51,39.51,0,0,1-4.57-.2,10.4,10.4,0,0,1-3.7-1,5.39,5.39,0,0,1-2.53-2.48,10.19,10.19,0,0,1-.92-4.67,54.51,54.51,0,0,1,1.8-13.24Q24,94,27.2,83.93c-.87,0-2.21,1.28-4,3.85a76.43,76.43,0,0,0-5.16,9,91.91,91.91,0,0,0-4.47,10.51,27.71,27.71,0,0,0-1.85,8.12,4.25,4.25,0,0,0,.22,1.73,1.75,1.75,0,0,1,.22.56.53.53,0,0,1-.15.39.43.43,0,0,1-.29.15,39.59,39.59,0,0,1-4.58-.2,10.4,10.4,0,0,1-3.69-1,5.41,5.41,0,0,1-2.54-2.48A10.32,10.32,0,0,1,0,110a36,36,0,0,1,1.12-7.55q.78-3.15,3.5-12.23T7.35,77.12a7.2,7.2,0,0,0-.08-.85c0-.37-.07-.59-.07-.66a.64.64,0,0,1,.15-.39.49.49,0,0,1,.34-.14,21.48,21.48,0,0,1,2.38.19c1.23.16,2.39.36,3.46.59q4.57,1.06,4.57,2.53A24.07,24.07,0,0,1,16.84,84c-.3.94-1.5,4.74-3.63,11.39s-3.19,12-3.19,16.1a82.36,82.36,0,0,1,2.39-10,87.62,87.62,0,0,1,6-13.19,60.09,60.09,0,0,1,7.93-11.48c3.09-3.28,5.84-4.92,8.28-4.92A3.13,3.13,0,0,1,36.69,72.74Z"/><path class="cls-1" d="M75.11,85.85q7.71-11,19.63-11c2.86.65,4.36,2.57,4.53,5.75a8,8,0,0,1,7.2-4.19c3,0,4.43,1.4,4.43,4.09a19.7,19.7,0,0,1-1.37,5l-1.41,3.7-.19.48-.2.54-.39,1c-.32.81-.6,1.53-.82,2.14q-2,5.35-3,8.91a30.11,30.11,0,0,0-1.36,7.83,4.48,4.48,0,0,0,.82,2.82,2.64,2.64,0,0,0,2.24,1.12q4.38,0,8.23-4.57a31.16,31.16,0,0,0,4.47-7.64l7-16.25A5.59,5.59,0,0,1,126.81,83a4.64,4.64,0,0,1,2.77-.73L126,90.55,120.63,103a48.7,48.7,0,0,1-4.82,9q-6.47,9.35-15.18,9.34a7.77,7.77,0,0,1-7-3.84,13.76,13.76,0,0,1-2-7.49,54.2,54.2,0,0,1,1.65-11.83,77.76,77.76,0,0,1-9,15.48q-6,7.68-10.76,7.68a3.71,3.71,0,0,1-2.19-.82,9.28,9.28,0,0,1-2-2,11.74,11.74,0,0,1-1.46-2.62,7.14,7.14,0,0,1-.54-2.49Q67.39,96.88,75.11,85.85ZM88.37,101q2.52-3.6,4.91-7.68a58.45,58.45,0,0,0,3.21-6.14l1.22-3.74q-6.85.09-13.11,8.22a29.82,29.82,0,0,0-6.26,18.69Q81.75,110.31,88.37,101Z"/><path class="cls-1" d="M127.88,118.14a.43.43,0,0,1-.29.15,39.59,39.59,0,0,1-4.58-.2,10.46,10.46,0,0,1-3.7-1,5.39,5.39,0,0,1-2.53-2.48,10.32,10.32,0,0,1-.92-4.67,63.85,63.85,0,0,1,2.82-17.18Q120.59,86.17,125,75c1.78-4.57,2.89-7.43,3.31-8.56q1.8-4.77,2.92-8.13Q134,49.64,134,44.42a4.66,4.66,0,0,0-.78-2.82A2.63,2.63,0,0,0,131,40.48a9,9,0,0,0-1.36.19A6.4,6.4,0,0,1,131.19,38a4.23,4.23,0,0,1,3.21-1.27,7.77,7.77,0,0,1,7,3.85,13.51,13.51,0,0,1,2,7.49q0,8.66-8.76,30.7t-8.76,32.75a70.73,70.73,0,0,1,2.49-10.41A86.53,86.53,0,0,1,134.54,88a58.59,58.59,0,0,1,8.28-11.29q4.71-4.77,8.56-4.77a3.88,3.88,0,0,1,2.19.83,10.06,10.06,0,0,1,2,2,14.92,14.92,0,0,1,1.36,2.63,7.09,7.09,0,0,1,.54,2.48,24.75,24.75,0,0,1-1.08,7.35c-.84,2.86-2,4.28-3.4,4.28a67.85,67.85,0,0,1-6.79-.34c-2.29-.22-3.43-.71-3.43-1.46a14.65,14.65,0,0,1,.58-2.67,12.29,12.29,0,0,0,.64-3.12c-.49,0-1.41.77-2.78,2.29A70.12,70.12,0,0,0,136.78,92c.52,2.27,1.15,4.53,1.9,6.76a65,65,0,0,0,2.78,7.21q3.79,8.07,7.54,8.07,4.38,0,8.27-4.57a31.16,31.16,0,0,0,4.48-7.64l6.95-16.25A6.22,6.22,0,0,1,170.55,83a4.68,4.68,0,0,1,2.78-.73l-3.56,8.27L164.42,103a52.57,52.57,0,0,1-4.82,9q-6.51,9.35-15.18,9.34-5.1,0-9.15-5.45a45.25,45.25,0,0,1-5.79-11.77,19,19,0,0,0-1.85,6.42q-.09,1.22-.09,2.73a14.53,14.53,0,0,0,.24,3,7.76,7.76,0,0,1,.24,1.48A.52.52,0,0,1,127.88,118.14Z"/><path class="cls-1" d="M194.74,101.84l7-16.25A5.58,5.58,0,0,1,203.59,83a4.7,4.7,0,0,1,2.78-.73l-3.55,8.27L197.46,103a35,35,0,0,1-9.53,13.23A23.08,23.08,0,0,1,172.65,122a12.85,12.85,0,0,1-5.4-1.11,11.71,11.71,0,0,1-4.09-3.17q-3.51-4.28-3.51-11.38a37.32,37.32,0,0,1,1.9-11.73,35.18,35.18,0,0,1,5.21-10,25.93,25.93,0,0,1,7.74-7A18.43,18.43,0,0,1,183.94,75a7.57,7.57,0,0,1,5.59,2.19,6.55,6.55,0,0,1,2.05,4.86,20,20,0,0,1-2.34,9.2,29.29,29.29,0,0,1-5.6,7.64,28.1,28.1,0,0,1-6.91,5.21,13.63,13.63,0,0,1-6.22,1.89,11.53,11.53,0,0,0,1.31,6.09q1.65,2.43,5.4,2.43Q188.26,114.39,194.74,101.84ZM182.18,82.08a.73.73,0,0,0-.58-.29c-.52,0-1.3.51-2.34,1.51a20.75,20.75,0,0,0-3.45,4.28,32.61,32.61,0,0,0-5.16,15.57c.33,0,1.1-.74,2.34-2.23s2.63-3.43,4-5.5a54.62,54.62,0,0,0,3.74-6.67,15.45,15.45,0,0,0,1.66-5.94A1.3,1.3,0,0,0,182.18,82.08Z"/><path class="cls-1" d="M329,112.2a5.93,5.93,0,0,0,5,2.39,16.61,16.61,0,0,0,10.37-3.65,22.58,22.58,0,0,0,6.91-9.1l7-16.25A5.66,5.66,0,0,1,360.18,83a4.68,4.68,0,0,1,2.78-.73l-3.56,8.27L354.05,103a35.67,35.67,0,0,1-9.44,13.23,22.84,22.84,0,0,1-15.18,5.7,10.92,10.92,0,0,1-4.72-1.12,13,13,0,0,1-4.28-3.12,15.35,15.35,0,0,1-3-4.91,17.59,17.59,0,0,1-1.17-6.42,37.77,37.77,0,0,1,1.85-11.73,34.11,34.11,0,0,1,5.06-10,25.43,25.43,0,0,1,7.54-7,18.24,18.24,0,0,1,9.4-2.63,7.57,7.57,0,0,1,5.59,2.19,6.55,6.55,0,0,1,2.05,4.86,9.69,9.69,0,0,1-3.17,7.69,11.45,11.45,0,0,1-8,2.68A8.6,8.6,0,0,0,338.24,89a17.52,17.52,0,0,0,.68-4.57c0-1.79-.39-2.68-1.17-2.68-.55,0-1.38.59-2.48,1.75a22.78,22.78,0,0,0-3.46,5,34.37,34.37,0,0,0-3.11,7.78,38.19,38.19,0,0,0-1.36,10.17A9.05,9.05,0,0,0,329,112.2Z"/><path class="cls-1" d="M361.25,118.14a.4.4,0,0,1-.29.15,39.39,39.39,0,0,1-4.57-.2,10.4,10.4,0,0,1-3.7-1,5.34,5.34,0,0,1-2.53-2.48,10.18,10.18,0,0,1-.93-4.67,63.51,63.51,0,0,1,2.83-17.18Q354,86.17,358.33,75c1.79-4.57,2.89-7.43,3.31-8.56q1.8-4.77,2.92-8.13,2.82-8.65,2.82-13.87a4.73,4.73,0,0,0-.77-2.82,2.64,2.64,0,0,0-2.24-1.12,9.1,9.1,0,0,0-1.37.19A6.82,6.82,0,0,1,364.51,38a4.4,4.4,0,0,1,3.26-1.27,7.75,7.75,0,0,1,7,3.85,13.51,13.51,0,0,1,2,7.49q0,8.66-4.68,22.34-1.41,4.28-6.37,17.22-1.22,3.16-4.53,13a40.49,40.49,0,0,0-1.94,10.85,65.7,65.7,0,0,1,2.33-9.68,91.91,91.91,0,0,1,5.94-13.24,57.26,57.26,0,0,1,7.93-11.67q4.62-5,8.42-5a3.73,3.73,0,0,1,2.19.83,10.06,10.06,0,0,1,1.95,2,13.4,13.4,0,0,1,1.41,2.63,7.29,7.29,0,0,1,.53,2.48A20.4,20.4,0,0,1,388.6,85c-.29.88-1,2.84-2.14,5.89-.29.85-.55,1.57-.78,2.19q-4.28,11.92-4.28,17a4.66,4.66,0,0,0,.78,2.82,2.62,2.62,0,0,0,2.24,1.12q4.43,0,8.27-4.57a30.85,30.85,0,0,0,4.47-7.64l7-16.25A5.84,5.84,0,0,1,406,83a4.9,4.9,0,0,1,2.82-.73l-3.6,8.27L399.84,103a53.28,53.28,0,0,1-4.82,9q-6.47,9.35-15.18,9.34a7.77,7.77,0,0,1-7-3.84,13.53,13.53,0,0,1-2-7.49,56.49,56.49,0,0,1,1.85-12.7q1.31-5.55,3.74-13.34c-.64,0-1.83,1.27-3.55,3.8a98,98,0,0,0-5.2,9A101.94,101.94,0,0,0,363,107.14q-2,5.51-2,8.32a5.45,5.45,0,0,0,.15,1.42l.09.29.1.19a1,1,0,0,1,.1.39A.53.53,0,0,1,361.25,118.14Z"/><path class="cls-1" d="M430.16,101.84l7-16.25A5.66,5.66,0,0,1,439,83a4.68,4.68,0,0,1,2.78-.73l-3.56,8.27L432.88,103a35,35,0,0,1-9.54,13.23A23,23,0,0,1,408.06,122a12.85,12.85,0,0,1-5.4-1.11,11.67,11.67,0,0,1-4.08-3.17q-3.51-4.28-3.51-11.38A37,37,0,0,1,397,94.59a34.93,34.93,0,0,1,5.21-10,26,26,0,0,1,7.73-7A18.49,18.49,0,0,1,419.35,75a7.59,7.59,0,0,1,5.6,2.19,6.54,6.54,0,0,1,2,4.86,20.12,20.12,0,0,1-2.33,9.2,29.52,29.52,0,0,1-5.6,7.64,28.1,28.1,0,0,1-6.91,5.21,13.67,13.67,0,0,1-6.23,1.89,11.52,11.52,0,0,0,1.32,6.09q1.65,2.43,5.4,2.43Q423.68,114.39,430.16,101.84ZM417.6,82.08a.75.75,0,0,0-.58-.29c-.52,0-1.3.51-2.34,1.51a20.75,20.75,0,0,0-3.45,4.28,32.61,32.61,0,0,0-5.16,15.57c.32,0,1.1-.74,2.33-2.23a65.87,65.87,0,0,0,4-5.5,53.49,53.49,0,0,0,3.75-6.67,15.64,15.64,0,0,0,1.66-5.94A1.3,1.3,0,0,0,417.6,82.08Z"/><path class="cls-1" d="M462.81,85.59a5.84,5.84,0,0,1,1.8-2.58,4.88,4.88,0,0,1,2.82-.73l-3.6,8.27L458.48,103q-3.23,7.49-6.62,10.66-4.19,4-11.39,4.57a93.84,93.84,0,0,1,1.32,15.62,58.64,58.64,0,0,1-.49,7.35,48.08,48.08,0,0,1-1.85,8.51,19.75,19.75,0,0,1-3.8,7.06,8.27,8.27,0,0,1-6.27,2.92q-3.56,0-5.16-4.43a17.77,17.77,0,0,1-.88-4,31.35,31.35,0,0,1-.24-3.94q0-10.65,3.75-29.34a345,345,0,0,1,9.44-36.64Q442.41,61.64,448.65,50q7-13.24,12.6-13.24a7.44,7.44,0,0,1,4.67,1.46,4.81,4.81,0,0,1,1.95,4,6.72,6.72,0,0,1-.34,2A2.8,2.8,0,0,0,465,42.81c-1.37,0-3.07,2-5.11,5.89a136.54,136.54,0,0,0-6.28,15.38q-3,8.37-7,21.17-2.48,8-7.05,23.4a4.6,4.6,0,0,0,2,2.14,5.84,5.84,0,0,0,2.92.68,9.6,9.6,0,0,0,7-2.77,21.19,21.19,0,0,0,4.28-6.86Zm-32.7,68.07a.63.63,0,0,0,.34.25,1.33,1.33,0,0,0,.39,0c.81,0,1.62-.77,2.43-2.33a26.68,26.68,0,0,0,2.09-6.18,83.33,83.33,0,0,0,2.05-19.27c0-1.1-.07-2.45-.2-4l-.19-2c-.07-.91-.12-1.58-.15-2q-7.15,25.69-7.15,33.67A3.36,3.36,0,0,0,430.11,153.66Z"/><path class="cls-1" d="M331.74,18.81,311.12,6.16s-34.41-6.95-44.67.46l-8.2,3.93-5.36-3.24L246.58,5.4s-23.49-4.12-36.88,4.65-19.59,8.71-23.22,28.62,12.09,27.78,12.09,27.78l13.78,6.23,2.13.71.16.53.51,1.33.86,2.49,3.1,12.37,1.64,37.18-1,10.58L270,132.49l28.62,3.1.55-26.25,3.11-18.26,1.9-10.17.8-3.38.24-1,.14-.51.08-.37.17-.67,17.16-7.13,13.33-12.88,4-18.57Z"/><path class="cls-2" d="M248.38,17.09c.35-.63,2-1.26,2.55-1.61a71.23,71.23,0,0,1,7.4-3.74c15.8-6.89,35.08-9,51.83-4,8.56,2.55,14.19,6.94,19.69,13.86a31.59,31.59,0,0,1,7.07,15.88c2.33,20.74-19.74,34.75-37.39,38.41a57.69,57.69,0,0,1-6.8,1c9.79-.81,19.16-2.19,28.07-6.71,9.72-4.92,19.24-14.08,21-25.27,1.13-7.19-1-15.15-4.46-21.41-4.6-8.21-12.15-14.25-20.51-18.35,0,0-28.62-12.66-56,1.65C260.86,6.82,250.77,12.69,248.38,17.09Z"/><path class="cls-2" d="M256.08,9.29c-1.26-.78-5.93-1.82-10.26-2.28-20.71-2.94-28.29.08-40.73,6.5-6.35,3.28-10.17,7.89-13.57,14.78a31.23,31.23,0,0,0-3.44,15.17c.9,19,20,29.2,34.27,30.51a39.71,39.71,0,0,0,5.45.11c-7.76.38-15.27.19-22.83-2.88-8.24-3.35-16.89-10.56-19.73-20.49-1.82-6.37-1.24-13.81.68-19.87C193.33,7.4,217.49,1.48,239.35,3.49a53.13,53.13,0,0,1,9.92,2C250.55,5.8,255.13,7.82,256.08,9.29Z"/><path class="cls-2" d="M214.92,74.64s9.18,16.61,7,59.58c0,0,49.62-6.74,74.5,0,0,0,1.14-32.68,9.15-59.38,0,0-7,32.42-5.78,62.54,0,0-56.19-4.64-81.38,3.58C218.45,141,221.79,95.74,214.92,74.64Z"/><path class="cls-2" d="M256.16,66.23l-6.25-23.51V66.23h-13.4V28.11H256l5,15.26,5-15.26h19.53V66.23H272.15V42.72l-6.22,23.51Z"/><path class="cls-2" d="M238,119.4V71.77h46.07V82.62H256.25v7.51h25.52V101H256.25v7.56h27.83V119.4Z"/><path class="cls-1" d="M472.87,37.88v.64h-1.23v3.2h-.76v-3.2h-1.23v-.64ZM477,41.72l-.14-2.26c0-.29,0-.66,0-1.07h0c-.1.34-.21.79-.33,1.14l-.69,2.14H475l-.69-2.19c-.07-.3-.19-.75-.27-1.09h0c0,.35,0,.72,0,1.07l-.14,2.26h-.74l.28-3.84h1.15l.66,1.88c.09.3.16.58.26,1h0l.27-1,.66-1.89h1.11l.29,3.84Z"/></svg>